# Blender v2.82 (sub 7) OBJ File: 'trophy.blend'
# www.blender.org
o Cube
v 0.099102 0.110176 -0.103819
v 0.099102 -0.110176 -0.103819
v 0.102601 0.109550 0.097398
v 0.102601 -0.109550 0.097398
v -0.104140 0.110312 -0.099387
v -0.104140 -0.110312 -0.099387
v -0.097293 0.109499 0.102489
v -0.097293 -0.109499 0.102489
v -0.116421 -0.116421 0.000000
v 0.116421 0.116421 0.000000
v -0.116421 0.116421 0.000000
v 0.116421 -0.116421 0.000000
v -0.000000 -0.116746 -0.116421
v 0.000000 0.116421 0.116421
v 0.000000 -0.116421 0.116421
v -0.000000 0.116746 -0.116421
v 0.000045 -0.334219 0.000167
v 0.000045 0.334219 0.000167
v 0.116421 0.000000 -0.116421
v -0.116421 0.000000 0.116421
v 0.116421 0.000000 0.116421
v -0.116421 0.000000 -0.116421
v 0.130426 0.000000 -0.000042
v -0.131209 0.000000 0.000112
v -0.000057 0.000000 -0.128788
v 0.000073 0.000000 0.130736
vt 0.750000 0.625000
vt 0.875000 0.750000
vt 0.750000 0.750000
vt 0.500000 0.875000
vt 0.625000 1.000000
vt 0.500000 1.000000
vt 0.500000 0.125000
vt 0.625000 0.250000
vt 0.500000 0.250000
vt 0.250000 0.625000
vt 0.375000 0.625000
vt 0.375000 0.750000
vt 0.500000 0.625000
vt 0.625000 0.750000
vt 0.500000 0.750000
vt 0.500000 0.375000
vt 0.625000 0.500000
vt 0.500000 0.500000
vt 0.250000 0.500000
vt 0.375000 0.500000
vt 0.625000 0.000000
vt 0.500000 0.000000
vt 0.750000 0.500000
vt 0.875000 0.500000
vt 0.625000 0.625000
vt 0.125000 0.500000
vt 0.125000 0.625000
vt 0.125000 0.750000
vt 0.375000 0.875000
vt 0.375000 0.250000
vt 0.375000 0.375000
vt 0.375000 0.000000
vt 0.375000 0.125000
vt 0.375000 1.000000
vt 0.875000 0.625000
vt 0.250000 0.750000
vt 0.625000 0.875000
vt 0.625000 0.125000
vt 0.625000 0.375000
vn -0.1578 0.4650 0.8711
vn -0.1207 0.1460 0.9819
vn -0.9838 0.1288 -0.1248
vn 0.8712 -0.4654 0.1564
vn 0.9824 0.1444 0.1181
vn 0.1047 0.1292 -0.9861
vn 0.9788 0.1673 -0.1178
vn 0.1419 -0.4677 -0.8724
vn -0.9747 0.1860 0.1239
vn -0.1708 0.4656 -0.8684
vn 0.8687 0.4643 -0.1728
vn -0.8735 -0.4672 -0.1367
vn -0.1043 0.1631 -0.9811
vn -0.8654 -0.4626 0.1927
vn 0.1200 0.1845 0.9755
vn 0.8712 0.4654 0.1564
vn 0.1887 -0.1200 0.9747
vn -0.1668 -0.1040 -0.9805
vn -0.9739 -0.1239 0.1901
vn 0.9783 -0.1178 -0.1703
vn 0.1323 -0.1044 -0.9857
vn 0.9820 -0.1181 0.1477
vn -0.9837 -0.1248 -0.1292
vn -0.1491 -0.1206 0.9814
vn 0.1915 0.4621 0.8659
vn -0.8735 0.4672 -0.1367
vn 0.1419 0.4677 -0.8724
vn -0.8654 0.4626 0.1927
vn 0.8687 -0.4643 -0.1728
vn -0.1578 -0.4650 0.8711
vn 0.1915 -0.4621 0.8659
vn -0.1708 -0.4656 -0.8684
vn -0.1491 0.1206 0.9814
vn -0.9837 0.1248 -0.1292
vn 0.9820 0.1181 0.1477
vn 0.1323 0.1044 -0.9857
vn 0.9783 0.1178 -0.1703
vn -0.9739 0.1239 0.1901
vn -0.1668 0.1040 -0.9805
vn 0.1887 0.1200 0.9747
vn 0.1200 -0.1845 0.9755
vn -0.1043 -0.1631 -0.9811
vn -0.9747 -0.1860 0.1239
vn 0.9788 -0.1673 -0.1178
vn 0.1047 -0.1292 -0.9861
vn 0.9824 -0.1444 0.1181
vn -0.9838 -0.1288 -0.1248
vn -0.1207 -0.1460 0.9819
s off
f 18/1/1 7/2/1 14/3/1
f 26/4/2 7/5/2 20/6/2
f 24/7/3 5/8/3 22/9/3
f 17/10/4 12/11/4 4/12/4
f 23/13/5 3/14/5 21/15/5
f 25/16/6 1/17/6 19/18/6
f 1/17/7 23/13/7 19/18/7
f 13/19/8 2/20/8 17/10/8
f 7/21/9 24/7/9 20/22/9
f 16/23/10 5/24/10 18/1/10
f 1/17/11 18/1/11 10/25/11
f 6/26/12 17/10/12 9/27/12
f 5/8/13 25/16/13 22/9/13
f 9/27/14 17/10/14 8/28/14
f 3/14/15 26/4/15 21/15/15
f 10/25/16 18/1/16 3/14/16
f 4/12/17 26/4/17 15/29/17
f 6/30/18 25/16/18 13/31/18
f 8/32/19 24/7/19 9/33/19
f 2/20/20 23/13/20 12/11/20
f 25/16/21 2/20/21 13/31/21
f 23/13/22 4/12/22 12/11/22
f 24/7/23 6/30/23 9/33/23
f 26/4/24 8/34/24 15/29/24
f 3/14/25 18/1/25 14/3/25
f 18/1/26 5/24/26 11/35/26
f 18/1/27 1/17/27 16/23/27
f 7/2/28 18/1/28 11/35/28
f 17/10/29 2/20/29 12/11/29
f 8/28/30 17/10/30 15/36/30
f 4/12/31 15/36/31 17/10/31
f 17/10/32 6/26/32 13/19/32
f 26/4/33 14/37/33 7/5/33
f 24/7/34 11/38/34 5/8/34
f 23/13/35 10/25/35 3/14/35
f 25/16/36 16/39/36 1/17/36
f 1/17/37 10/25/37 23/13/37
f 7/21/38 11/38/38 24/7/38
f 5/8/39 16/39/39 25/16/39
f 3/14/40 14/37/40 26/4/40
f 4/12/41 21/15/41 26/4/41
f 6/30/42 22/9/42 25/16/42
f 8/32/43 20/22/43 24/7/43
f 2/20/44 19/18/44 23/13/44
f 25/16/45 19/18/45 2/20/45
f 23/13/46 21/15/46 4/12/46
f 24/7/47 22/9/47 6/30/47
f 26/4/48 20/6/48 8/34/48
